<svg xmlns="http://www.w3.org/2000/svg" viewBox="0 0 32 32">
  <!-- Background -->
  <rect width="32" height="32" rx="8" fill="#f97316"/>
  
  <!-- QR dot pattern -->
  <rect x="6" y="6" width="4" height="4" rx="0.8" fill="white"/>
  <rect x="11" y="6" width="2" height="2" rx="0.4" fill="white"/>
  <rect x="14" y="6" width="2" height="2" rx="0.4" fill="white"/>
  <rect x="22" y="6" width="4" height="4" rx="0.8" fill="white"/>
  
  <rect x="6" y="11" width="2" height="2" rx="0.4" fill="white"/>
  <rect x="10" y="11" width="2" height="2" rx="0.4" fill="white"/>
  <rect x="14" y="11" width="4" height="2" rx="0.4" fill="white"/>
  <rect x="22" y="11" width="2" height="2" rx="0.4" fill="white"/>
  
  <rect x="6" y="14" width="4" height="4" rx="0.8" fill="white"/>
  <rect x="12" y="14" width="2" height="2" rx="0.4" fill="white"/>
  <rect x="16" y="14" width="2" height="4" rx="0.4" fill="white"/>
  <rect x="20" y="14" width="2" height="2" rx="0.4" fill="white"/>
  <rect x="24" y="14" width="2" height="4" rx="0.4" fill="white"/>
  
  <rect x="6" y="22" width="4" height="4" rx="0.8" fill="white"/>
  <rect x="12" y="20" width="2" height="2" rx="0.4" fill="white"/>
  <rect x="16" y="20" width="4" height="2" rx="0.4" fill="white"/>
  <rect x="12" y="24" width="4" height="2" rx="0.4" fill="white"/>
  <rect x="22" y="22" width="4" height="4" rx="0.8" fill="white"/>
</svg>